:SAMPLES-PER-SECOND 30
:FULLY-SPECIFIED
:DEGREES
317
root  61.8293 38.7571 1.47994 -41.5287 -87.1546 40.0716
RightUpLeg  1.83446 -9.51195 -3.24536
RightLeg  15.4746 3.5866 1.10906
RightFoot  -15.094 -0.131438 -0.898079
RightToes  3.49245e-010 0 -3.6325e-017
Spine  4.23342 1.98478 11.7843
Spine1  4.01228 4.2371 -7.74906
HEad  -14.138 1.31892 -3.02861
LeftShoulder1  -0.369259 4.425 -33.912
LeftArm  9.56404 18.2113 -39.0573
LeftForeArm  21.4735 -17.4293 -6.44663
LeftHand  0.0187073 9.16578 2.01169
RightShoulder  -0.836782 -5.88973 28.468
RightArm  26.2545 11.4718 51.0047
RightForeArm  3.75812 22.3062 4.75862
RightHand  -0.458845 5.7367 -5.10667
LeftUpLeg  -21.0043 0.718872 1.01114
LeftLeg  32.6698 -0.469408 0.0138746
LeftFoot  -5.69745 0.271448 -4.79855
LeftToes  -5.6298e-010 8.41567e-011 -1.83319e-011
318
root  60.956 38.7769 1.4209 -50.7298 -87.1198 49.3937
RightUpLeg  4.03441 -9.46119 -3.72132
RightLeg  13.7407 3.93348 1.02352
RightFoot  -15.5937 -0.132064 -0.714856
RightToes  3.49245e-010 0 -3.6325e-017
Spine  4.39123 2.20041 11.2492
Spine1  3.7685 4.49371 -8.71405
HEad  -14.759 1.70526 -2.62298
LeftShoulder1  -0.32914 4.3376 -33.3225
LeftArm  6.8356 19.1152 -39.4775
LeftForeArm  24.4651 -16.1253 -6.93081
LeftHand  0.00630117 8.91324 1.68556
RightShoulder  -0.848668 -5.92051 28.5051
RightArm  28.1249 13.2965 51.0409
RightForeArm  4.07588 22.8731 4.7628
RightHand  -0.409283 6.43747 -4.34394
LeftUpLeg  -20.6613 1.45141 0.321471
LeftLeg  22.8734 -0.43711 0.131586
LeftFoot  -4.16569 0.343155 -5.08123
LeftToes  -5.6298e-010 8.41567e-011 -1.83319e-011
319
root  60.0711 38.7444 1.4128 -59.4942 -87.3192 58.5341
RightUpLeg  5.74595 -9.36519 -4.02497
RightLeg  12.3948 4.48294 1.0179
RightFoot  -16.1508 -0.13113 -0.521696
RightToes  3.49245e-010 0 -3.6325e-017
Spine  4.19215 2.44205 10.4706
Spine1  3.85003 4.59613 -8.65184
HEad  -15.5865 1.70712 -2.88526
LeftShoulder1  -0.421263 4.55477 -33.9379
LeftArm  5.96508 19.4707 -38.884
LeftForeArm  26.4089 -15.5306 -7.13039
LeftHand  -0.0437966 8.47687 0.120523
RightShoulder  -0.803329 -5.85721 27.538
RightArm  28.9167 14.4312 51.6336
RightForeArm  4.97768 23.0233 4.75232
RightHand  -0.313647 6.3472 -3.43821
LeftUpLeg  -20.1948 2.00292 -0.126999
LeftLeg  13.143 -0.349459 0.156141
LeftFoot  -1.96613 0.426455 -5.05442
LeftToes  -5.6298e-010 8.41567e-011 -1.83319e-011
320
root  59.1186 38.6626 1.44411 -66.5006 -87.3939 65.6089
RightUpLeg  7.78888 -9.44882 -4.52796
RightLeg  11.3654 5.15987 1.08499
RightFoot  -16.9161 -0.12115 -0.139027
RightToes  3.49245e-010 0 -3.6325e-017
Spine  3.88366 2.44331 9.52453
Spine1  4.30114 4.52474 -8.51224
HEad  -16.3351 1.97826 -2.78094
LeftShoulder1  -0.467883 4.66991 -33.9708
LeftArm  5.16096 19.8269 -38.7394
LeftForeArm  27.6019 -14.8912 -7.39199
LeftHand  -0.0588636 8.77742 -0.349047
RightShoulder  -0.873655 -6.10016 27.057
RightArm  31.7829 16.3566 52.5861
RightForeArm  3.52435 21.4268 4.96203
RightHand  -0.35871 6.22999 -3.91309
LeftUpLeg  -19.5999 1.98069 -0.378172
LeftLeg  5.63991 0.176024 -0.210035
LeftFoot  -0.243737 0.513132 -5.26237
LeftToes  -5.6298e-010 8.41567e-011 -1.83319e-011
321
root  58.1083 38.4995 1.51466 -75.1978 -87.517 74.1399
RightUpLeg  9.62104 -9.23353 -4.85692
RightLeg  11.4143 5.6101 0.81537
RightFoot  -18.0553 -0.0990005 0.394902
RightToes  3.49245e-010 0 -3.6325e-017
Spine  3.87827 2.43828 8.79105
Spine1  4.60067 4.57245 -8.68812
HEad  -16.8236 1.93517 -2.35156
LeftShoulder1  -0.415775 4.54821 -33.6447
LeftArm  5.56633 20.3605 -38.5713
LeftForeArm  27.1714 -14.9451 -7.42593
LeftHand  -0.0446405 8.44632 0.0518354
RightShoulder  -0.8552 -6.00026 27.6589
RightArm  32.407 17.1366 52.2815
RightForeArm  3.50164 20.0394 5.43158
RightHand  -0.390456 6.1886 -4.24254
LeftUpLeg  -19.2818 1.83393 -0.552487
LeftLeg  2.15167 1.90547 -0.666957
LeftFoot  0.773411 0.622129 -5.87883
LeftToes  -5.6298e-010 8.41567e-011 -1.83319e-011
322
root  57.0122 38.2611 1.67842 -81.3433 -87.6157 79.8762
RightUpLeg  11.3689 -9.23484 -5.53117
RightLeg  12.5841 6.18107 0.912413
RightFoot  -19.5685 -0.0445666 1.21558
RightToes  3.49245e-010 0 -3.6325e-017
Spine  3.94886 2.44957 8.64712
Spine1  4.83504 4.7266 -9.15782
HEad  -16.8946 1.68641 -1.99969
LeftShoulder1  -0.342345 4.36884 -33.425
LeftArm  4.95756 20.0897 -38.3671
LeftForeArm  28.6026 -14.1828 -7.78008
LeftHand  -0.0611096 8.60548 -0.479138
RightShoulder  -0.864324 -6.0056 27.9522
RightArm  31.0534 16.7867 51.9089
RightForeArm  5.07172 18.4183 6.04446
RightHand  -0.375427 6.0285 -4.14188
LeftUpLeg  -19.3101 1.8959 -1.16412
LeftLeg  3.44646 3.46146 -0.744285
LeftFoot  1.48558 0.589006 -5.435
LeftToes  -5.6298e-010 8.41567e-011 -1.83319e-011
323
root  55.8501 38.064 1.87052 -87.735 -87.3485 85.4977
RightUpLeg  13.5141 -8.32442 -6.40029
RightLeg  13.8802 6.02241 0.853253
RightFoot  -20.6632 0.10902 3.04167
RightToes  3.49245e-010 0 -3.6325e-017
Spine  4.02569 2.49994 7.04319
Spine1  5.51215 4.63642 -8.21481
HEad  -16.7383 0.872252 -2.06737
LeftShoulder1  -0.403767 4.51111 -33.9539
LeftArm  4.56096 19.4092 -37.8699
LeftForeArm  29.6145 -13.6147 -8.04467
LeftHand  -0.0673621 9.04255 -0.546774
RightShoulder  -0.824013 -5.90805 27.6648
RightArm  28.0422 15.5411 51.549
RightForeArm  7.16643 16.5228 6.73587
RightHand  -0.399245 5.99475 -4.39446
LeftUpLeg  -19.7138 1.53008 -2.54066
LeftLeg  8.38681 2.67098 0.0514999
LeftFoot  5.36611 -0.031894 -0.112438
LeftToes  -5.6298e-010 8.41567e-011 -1.83319e-011
324
root  54.6344 37.8632 2.06907 -95.5533 -86.9437 92.5125
RightUpLeg  14.7131 -5.40561 -6.74725
RightLeg  17.0894 4.39837 0.864174
RightFoot  -21.3415 0.372426 5.87832
RightToes  3.49245e-010 0 -3.6325e-017
Spine  4.23318 2.44162 5.68078
Spine1  5.63179 4.53085 -8.11376
HEad  -15.3808 1.2776 -1.48151
LeftShoulder1  -0.500144 4.75168 -33.8582
LeftArm  4.11214 18.7556 -37.554
LeftForeArm  29.8785 -13.0687 -8.28232
LeftHand  -0.0549081 8.93742 -0.185262
RightShoulder  -0.874239 -5.98465 28.6483
RightArm  25.0881 13.8532 50.6013
RightForeArm  9.50045 14.555 7.38947
RightHand  -0.37087 6.28248 -4.021
LeftUpLeg  -19.9167 1.08891 -3.66053
LeftLeg  13.2962 2.10297 0.703016
LeftFoot  8.03793 -0.739711 4.15665
LeftToes  -5.6298e-010 8.41567e-011 -1.83319e-011
325
root  53.4396 37.7141 2.26624 -100.948 -86.0258 96.9828
RightUpLeg  14.5254 -2.58433 -7.68137
RightLeg  23.002 3.0327 1.25378
RightFoot  -20.7698 0.696263 10.2118
RightToes  3.49245e-010 0 -3.6325e-017
Spine  5.00208 2.49433 3.3494
Spine1  5.173 4.26391 -7.34839
HEad  -14.584 1.74539 -1.39778
LeftShoulder1  -0.648021 5.09727 -34.4963
LeftArm  2.09125 17.3505 -36.8289
LeftForeArm  31.959 -11.678 -8.6291
LeftHand  -0.0435891 8.0265 0.00658644
RightShoulder  -0.899768 -6.00648 29.3692
RightArm  21.0448 11.1397 49.7502
RightForeArm  12.5355 12.2446 7.82367
RightHand  -0.347421 6.31502 -3.77788
LeftUpLeg  -19.7526 0.332545 -4.92325
LeftLeg  18.8654 3.39533 1.62828
LeftFoot  4.42504 -0.810914 5.64059
LeftToes  -5.6298e-010 8.41567e-011 -1.83319e-011
326
root  52.3379 37.6721 2.45905 -103.42 -85.2877 99.062
RightUpLeg  11.9235 -1.32333 -8.91002
RightLeg  31.5041 3.30647 1.95529
RightFoot  -17.2224 0.679808 16.0282
RightToes  3.49245e-010 0 -3.6325e-017
Spine  4.66704 2.68392 1.59152
Spine1  5.95042 4.19488 -7.25593
HEad  -13.9672 2.06419 -1.57233
LeftShoulder1  -0.464824 4.6563 -34.1953
LeftArm  0.531355 15.656 -37.1021
LeftForeArm  32.7691 -10.5987 -8.83079
LeftHand  -0.0568161 8.72785 -0.304322
RightShoulder  -0.873806 -5.92778 29.4527
RightArm  17.024 7.6052 49.4441
RightForeArm  14.802 10.4204 7.60563
RightHand  -0.310724 5.00393 -3.76929
LeftUpLeg  -18.8563 0.919934 -6.03859
LeftLeg  21.6114 3.42429 1.83202
LeftFoot  1.59104 -0.727082 6.31946
LeftToes  -5.6298e-010 8.41567e-011 -1.83319e-011
327
root  51.2827 37.7698 2.66494 -112.072 -84.6437 107.544
RightUpLeg  7.01072 0.435499 -9.89403
RightLeg  41.6441 3.23387 2.78249
RightFoot  -8.5882 -0.408277 17.8406
RightToes  3.49245e-010 0 -3.6325e-017
Spine  4.86013 2.65164 0.648909
Spine1  5.69037 4.02488 -7.53823
HEad  -13.5738 3.18129 -1.98248
LeftShoulder1  -0.587141 4.963 -34.0658
LeftArm  -0.305935 13.6966 -37.4814
LeftForeArm  33.6533 -10.2686 -8.78043
LeftHand  -0.0668159 8.56696 -0.687063
RightShoulder  -0.857927 -5.88831 29.3691
RightArm  14.4253 4.49019 49.7106
RightForeArm  16.1889 8.38905 7.45516
RightHand  -0.319115 4.97407 -3.88656
LeftUpLeg  -17.2307 1.76053 -6.79375
LeftLeg  22.457 3.75777 2.04777
LeftFoot  -0.684617 -0.620543 6.68138
LeftToes  -5.6298e-010 8.41567e-011 -1.83319e-011
328
root  50.2314 37.9472 2.83402 -118.125 -84.0474 113.545
RightUpLeg  1.04517 2.29441 -10.3355
RightLeg  51.3801 2.76841 3.35597
RightFoot  2.55226 -1.5711 12.8349
RightToes  3.49245e-010 0 -3.6325e-017
Spine  4.40924 2.40504 -1.10532
Spine1  6.10832 3.40747 -6.21258
HEad  -14.2043 4.11056 -2.40046
LeftShoulder1  -0.591408 4.96507 -34.2842
LeftArm  -0.0730975 11.5679 -37.6185
LeftForeArm  32.7128 -10.6086 -8.71308
LeftHand  -0.0468486 8.01826 -0.16208
RightShoulder  -0.808198 -5.76924 29.0448
RightArm  13.9167 2.1073 49.8579
RightForeArm  17.3096 7.38516 7.43781
RightHand  -0.260062 5.60955 -3.06345
LeftUpLeg  -15.1732 2.03832 -7.36917
LeftLeg  22.2512 4.43909 2.34098
LeftFoot  -2.52854 -0.493863 6.59468
LeftToes  -5.6298e-010 8.41567e-011 -1.83319e-011
329
root  49.2758 38.0322 2.94196 -120.348 -83.8905 115.5
RightUpLeg  -3.7547 3.08953 -10.4024
RightLeg  58.0614 2.65909 4.16761
RightFoot  5.07996 -1.44322 10.1738
RightToes  3.49245e-010 0 -3.6325e-017
Spine  4.50877 2.0372 -2.49805
Spine1  6.57882 2.6561 -5.5695
HEad  -14.8179 5.19262 -2.78216
LeftShoulder1  -0.498749 4.74888 -33.894
LeftArm  1.22425 9.23653 -37.9792
LeftForeArm  30.9229 -11.4605 -8.6412
LeftHand  -0.0374428 6.87434 -0.0938269
RightShoulder  -0.884164 -5.94787 29.5843
RightArm  14.938 -0.19798 49.073
RightForeArm  18.0692 7.84513 7.64928
RightHand  -0.300497 4.99749 -3.65317
LeftUpLeg  -13.3825 2.00487 -7.56764
LeftLeg  22.6768 4.83717 2.54705
LeftFoot  -4.48448 -0.359734 6.4545
LeftToes  -5.6298e-010 8.41567e-011 -1.83319e-011
330
root  48.3391 38.2021 3.0552 -126.963 -83.8518 122.014
RightUpLeg  -8.38577 3.72638 -10.186
RightLeg  61.5547 2.78361 5.04007
RightFoot  2.2125 -1.32274 11.2169
RightToes  3.49245e-010 0 -3.6325e-017
Spine  4.93565 1.74054 -3.40789
Spine1  6.31587 1.99453 -4.46661
HEad  -15.6316 6.27983 -3.36371
LeftShoulder1  -0.582278 4.94774 -34.1747
LeftArm  3.17307 6.37165 -37.9922
LeftForeArm  28.6393 -12.7298 -8.44987
LeftHand  -0.0456649 8.62343 0.0703992
RightShoulder  -0.852377 -5.88149 29.2473
RightArm  16.2925 -3.04567 48.5142
RightForeArm  18.0041 9.362 7.66064
RightHand  -0.292204 5.34914 -3.46821
LeftUpLeg  -11.2193 2.55796 -7.36942
LeftLeg  21.9225 5.03315 2.5083
LeftFoot  -5.92841 -0.26886 6.42983
LeftToes  -5.6298e-010 8.41567e-011 -1.83319e-011
